<?xml version="1.0" standalone="no"?>
<!DOCTYPE svg PUBLIC "-//W3C//DTD SVG 20010904//EN"
 "http://www.w3.org/TR/2001/REC-SVG-20010904/DTD/svg10.dtd">
<svg version="1.0" xmlns="http://www.w3.org/2000/svg"
 width="322.000000pt" height="156.000000pt" viewBox="0 0 322.000000 156.000000"
 preserveAspectRatio="xMidYMid meet">
<metadata>
Created by potrace 1.16, written by Peter Selinger 2001-2019
</metadata>
<g transform="translate(0.000000,156.000000) scale(0.100000,-0.100000)"
fill="#000000" stroke="none">
<path d="M428 1441 c-152 -49 -268 -170 -313 -325 -13 -45 -16 -83 -13 -152 4
-80 10 -103 40 -166 77 -160 210 -254 388 -274 l60 -7 0 44 0 45 -69 10 c-133
21 -236 96 -293 212 -31 62 -33 74 -33 167 0 90 3 106 29 160 38 76 105 143
181 181 55 26 69 29 165 29 96 0 110 -2 163 -29 207 -105 277 -361 152 -553
-19 -28 -51 -64 -71 -80 -67 -51 -74 -61 -74 -103 0 -22 3 -40 8 -40 18 0 111
62 150 100 258 251 140 693 -212 786 -71 19 -189 17 -258 -5z"/>
<path d="M1468 1441 c-149 -48 -263 -163 -309 -310 -10 -35 -18 -65 -17 -67 2
-1 24 -5 51 -9 45 -7 47 -6 47 17 0 42 58 143 111 193 27 25 75 58 107 73 49
23 70 27 152 27 82 0 103 -4 152 -27 150 -70 241 -224 224 -381 -11 -108 -66
-200 -174 -289 -28 -23 -32 -32 -32 -73 l0 -46 52 28 c89 48 153 116 199 208
38 76 42 93 47 178 4 78 1 107 -16 163 -47 153 -160 268 -311 314 -81 26 -205
26 -283 1z"/>
<path d="M2499 1437 c-80 -29 -140 -69 -198 -132 -46 -50 -98 -151 -108 -208
-5 -32 -3 -34 27 -41 53 -10 57 -8 65 32 17 94 109 201 213 250 50 24 69 27
157 27 93 0 104 -3 160 -32 81 -42 141 -104 179 -183 28 -59 31 -74 31 -160 0
-82 -4 -103 -27 -152 -54 -116 -178 -207 -302 -222 -155 -20 -312 66 -385 213
-27 52 -36 62 -71 72 -22 7 -43 9 -46 6 -12 -12 30 -121 69 -180 99 -147 283
-227 459 -198 179 29 320 148 378 321 18 54 21 81 18 160 -8 154 -66 268 -183
357 -82 62 -151 86 -270 90 -86 3 -109 0 -166 -20z"/>
<path d="M2110 997 l0 -44 53 -6 c133 -14 259 -101 310 -215 24 -52 31 -60 68
-71 22 -7 43 -10 46 -8 7 7 -16 87 -37 127 -72 140 -213 234 -382 255 l-58 6
0 -44z"/>
<path d="M1895 971 c-263 -153 -312 -516 -97 -730 189 -189 491 -187 672 5 53
56 107 156 117 218 5 31 3 36 -13 36 -11 0 -29 3 -41 6 -18 5 -23 -1 -37 -48
-32 -111 -122 -206 -233 -248 -84 -32 -216 -26 -296 13 -78 39 -142 104 -180
185 -29 61 -32 76 -32 162 0 87 3 101 32 161 30 61 81 119 142 161 17 12 25
29 28 62 3 25 2 46 -3 46 -5 0 -31 -13 -59 -29z"/>
<path d="M1154 878 c11 -58 62 -152 108 -203 80 -87 219 -153 331 -154 l37 -1
0 44 0 45 -47 6 c-152 21 -258 94 -318 221 -19 39 -32 55 -56 63 -54 19 -62
15 -55 -21z"/>
</g>
</svg>
